inDegrees=no
num_controls=7
num_derivatives=13
num_iterations=66
num_multipliers=7
num_parameters=0
num_slacks=7
num_states=26
objective=0.449244
objective_accelerations=0.050708
objective_balance=0.006575
objective_effort=0.036335
objective_height=0.350681
objective_ligament=0.004945
solver_duration=948.249035
status=Solve_Succeeded
success=true
DataType=double
version=3
OpenSimVersion=4.5
endheader
time	/jointset/ground_pelvis/pelvis_tilt/value	/jointset/ground_pelvis/pelvis_tx/value	/jointset/ground_pelvis/pelvis_ty/value	/jointset/hip_l/hip_flexion_l/value	/jointset/hip_l/hip_adduction_l/value	/jointset/hip_l/hip_rotation_l/value	/jointset/back/lumbar_extension/value	/jointset/patellofemoral_l/patellar_flexion_l/value	/jointset/knee_l/knee_flexion_l/value	/jointset/knee_l/knee_adduction_l/value	/jointset/knee_l/knee_rotation_l/value	/jointset/ankle_l/ankle_angle_l/value	/jointset/subtalar_l/subtalar_angle_l/value	/jointset/ground_pelvis/pelvis_tilt/speed	/jointset/ground_pelvis/pelvis_tx/speed	/jointset/ground_pelvis/pelvis_ty/speed	/jointset/hip_l/hip_flexion_l/speed	/jointset/hip_l/hip_adduction_l/speed	/jointset/hip_l/hip_rotation_l/speed	/jointset/back/lumbar_extension/speed	/jointset/patellofemoral_l/patellar_flexion_l/speed	/jointset/knee_l/knee_flexion_l/speed	/jointset/knee_l/knee_adduction_l/speed	/jointset/knee_l/knee_rotation_l/speed	/jointset/ankle_l/ankle_angle_l/speed	/jointset/subtalar_l/subtalar_angle_l/speed	/forceset/tau_hip_flexion_l	/forceset/tau_hip_adduction_l	/forceset/tau_hip_rotation_l	/forceset/tau_knee_flexion_l	/forceset/tau_ankle_angle_l	/forceset/tau_subtalar_angle_l	/forceset/tau_lumbar_extension	lambda_cid13_p0	lambda_cid13_p1	lambda_cid13_p2	lambda_cid13_p3	lambda_cid13_p4	lambda_cid13_p5	lambda_cid14_p0	/jointset/ground_pelvis/pelvis_tilt/accel	/jointset/ground_pelvis/pelvis_tx/accel	/jointset/ground_pelvis/pelvis_ty/accel	/jointset/hip_l/hip_flexion_l/accel	/jointset/hip_l/hip_adduction_l/accel	/jointset/hip_l/hip_rotation_l/accel	/jointset/back/lumbar_extension/accel	/jointset/patellofemoral_l/patellar_flexion_l/accel	/jointset/knee_l/knee_flexion_l/accel	/jointset/knee_l/knee_adduction_l/accel	/jointset/knee_l/knee_rotation_l/accel	/jointset/ankle_l/ankle_angle_l/accel	/jointset/subtalar_l/subtalar_angle_l/accel	gamma_cid13_p0	gamma_cid13_p1	gamma_cid13_p2	gamma_cid13_p3	gamma_cid13_p4	gamma_cid13_p5	gamma_cid14_p0
0	-0.1574330158698662	0.05755755810865928	0.8979081358493323	0.3774924667018715	-0.2604385685590646	-0.2505828387569661	-0.01265067647494873	0.03223648243720312	0.03223648243721463	-0.1745317685131529	0.1531661360211826	-0.04231377076293093	-0.010824020844919	0	0	0	0	0	0	0	0	0	0	0	0	0	0.1274354679377209	-0.01751658064282491	-0.04281564000391639	-0.2674932558852946	0.2635411254710378	-0.08037651301425487	-0.07792281058029243	40.98612103211056	21.12139601510914	3.78017784963864	8.119821049369165	-589.7026771112755	-30.35395674873205	-38.4209423535228	-3.809231995507994	-2.203870166740354	-1.070493870188695	12.2007093049338	-1.042550635291299	2.898369928555348	-5.419389086504513	9.279522994585346	9.279522994586813	0.3318904232847799	0.2775984837492073	1.064145466681002	-0.8252352063995508	2.381218823973937e-08	1.761880703379788e-07	-4.546834011689842e-08	-3.808591239053352e-08	1.710753988721873e-07	1.246172905014498e-07	1.401858704179643e-08
0.01	-0.1576200128273733	0.0574510718160864	0.8978557130584083	0.3780880621569934	-0.2604913030163856	-0.2504379017765306	-0.01292575470350128	0.0326900948525573	0.03269009485255631	-0.1745186906043078	0.1531768158209331	-0.04226043079203445	-0.01086582730605684	-0.03753229845645023	-0.02096170744758509	-0.01045664267729275	0.118608270177594	-0.01056859783638211	0.02888985722579364	-0.05494367600423448	0.09033505640521759	0.09033505640521836	0.002456897743725614	0.002118780969531849	0.01090303244584322	-0.008326927963739027	0.1396425560817411	-0.03091816301794762	-0.04655248319925555	-0.2939169405300288	0.3043327231129705	-0.08015431358861067	-0.08534940133863475	54.16905826895404	19.15336002337625	3.595116093129321	-3.569889767448893	-591.3726265522939	-36.15202539248483	-38.43434429696928	-3.745171946643311	-1.991995990092968	-1.029027925413754	11.61425911890042	-1.067285924574935	2.869676139559452	-5.521061401742139	8.852380159502728	8.852380159502014	0.1788060109911804	0.1764569287428092	1.138642083869702	-0.8312897682319609	-2.498811801539302e-08	1.381352003477208e-07	4.465808813482822e-08	7.682624533762447e-09	-3.303370659917406e-08	6.337679808621545e-08	-3.432080951839326e-09
0.02	-0.1581863214046245	0.05714503345777314	0.8976995681489288	0.3798544149628577	-0.2606503777654294	-0.250006989719865	-0.0137481106009688	0.034035434471185	0.03403543447118719	-0.1744858004054662	0.1532081712354386	-0.04209100850661904	-0.01098987668220665	-0.07586232395017703	-0.03991041314807497	-0.02074442371110439	0.2341514701442775	-0.02126805834334565	0.05719501525031631	-0.1094555337828685	0.1783454406509469	0.1783454406509476	0.003962457930425422	0.004135122946568009	0.02321646290503733	-0.01644858300232514	0.1518496442260275	-0.04431974539295376	-0.05028932639448876	-0.3203406251745181	0.3451243207550356	-0.07993211416282398	-0.09277599209691069	67.43157320258715	17.17140811962791	3.412256440981942	-15.3937388091666	-591.8506558623523	-41.84488553558744	-38.47378068562359	-3.968777402963636	-1.801269817321026	-1.036721541492513	11.58769526275151	-1.068723169408157	2.781430088301167	-5.333025441384528	8.81458856268763	8.81458856268894	0.1416229118784801	0.2571106852501053	1.346225069351357	-0.784180621369489	-7.378842427052541e-08	1.000823303574628e-07	1.347845163865549e-07	5.345116145805841e-08	-2.371428120705354e-07	2.136305670981154e-09	-2.088274894547508e-08
0.03	-0.1591354784710468	0.05665677113854371	0.8974413062048548	0.3827601501345718	-0.2609163481638783	-0.2492962520809519	-0.01510860461228133	0.03624984928518482	0.03624984928518246	-0.1744412828731633	0.1532594568512556	-0.041794347341967	-0.01119409223446626	-0.1136329774750693	-0.05768538846986979	-0.03088414535808423	0.3463813665982794	-0.03187840040700037	0.08484846569448727	-0.1621146600293191	0.264204772232413	0.2642047722324233	0.004907153322375003	0.006109999029313288	0.03605808001212644	-0.02436333413673317	0.1396655805341806	-0.03777092690617197	-0.0477914853158391	-0.3039848807350521	0.323253362806107	-0.07759114622522842	-0.08355041654042976	60.51338665636528	17.18789425176049	3.613123161399938	-11.14160793893223	-591.5160982233289	-40.16089619142583	-38.5379022733863	-3.630796684633789	-1.75710117964725	-0.9990727677492259	10.94849810691502	-1.0500657909079	2.741676027134563	-5.153064949074802	8.421697215507265	8.421697215507976	0.06583699152499718	0.1658578782596702	1.244472155156768	-0.7904737121614713	-9.00050798718568e-08	1.156042879384247e-07	1.701499144578173e-07	6.297764077775989e-08	-3.203584657960918e-07	4.093057914999825e-09	-2.670170629115718e-08
0.04	-0.1604522595441835	0.05599246110808948	0.897082351986022	0.3867697565248748	-0.2612869971961738	-0.2483121052366613	-0.01697983163261346	0.03931287576691195	0.03931287576691489	-0.1743883295591345	0.1533301275896035	-0.04137100158148672	-0.01147652556860727	-0.1493871252952631	-0.07511995539303543	-0.04088287866288194	0.4549257138599163	-0.04220378511320817	0.111876856325039	-0.2116021355877779	0.348067774199121	0.3480677741991353	0.005649614261171818	0.008012147450970022	0.04855338206997678	-0.03209213937855463	0.1274815168423273	-0.03122210841943212	-0.04529364423708575	-0.2876291362956447	0.3013824048571427	-0.07525017828768336	-0.0743248409839157	53.66828055205811	17.19559962360306	3.810807062891416	-7.027845166604695	-590.0996813106574	-38.37566438316056	-38.62545156064744	-3.56547626202419	-1.733188137594969	-1.008523873056102	10.8505854242784	-1.011731697919009	2.656418125577344	-4.698695303786291	8.415322639735955	8.415322639736132	0.1011760212474635	0.242565153032392	1.276962059503788	-0.7469914428523623	-1.055499076246562e-07	1.322308811394118e-07	2.04386219123297e-07	7.1756861177779e-08	-4.010814710320439e-07	7.35284613137425e-09	-3.228083455131447e-08
0.05	-0.1621183712223652	0.05515608448917273	0.8966238610905796	0.3918478047347072	-0.2617590508646929	-0.2470611284088883	-0.01933141979622325	0.0432045796398242	0.04320457963982013	-0.1743284120834933	0.1534197693286241	-0.04082377889460624	-0.01183476629633076	-0.1836370138120067	-0.09203732035032143	-0.05080869207740272	0.5601207399329285	-0.05212447105004282	0.1381861242369651	-0.2583703144395365	0.4298864954856101	0.4298864954855781	0.006331151095681486	0.009913183532937417	0.06087964783593879	-0.03948148893035762	0.1215534162900104	-0.02947190171871925	-0.04447458126223538	-0.2832363131990812	0.2965720507739742	-0.07381911710756434	-0.06946310367447042	52.27808348371284	16.80147368188475	3.891949885077872	-7.041308065537127	-589.1790435688758	-38.23150672186184	-38.73466475836641	-3.325021747453783	-1.653289045895819	-0.9836996920415809	10.26946882656103	-0.9698896979863841	2.598293114416131	-4.614101771944154	8.007177639619369	8.007177639612467	0.05127217489958648	0.1633916515640852	1.208727468499322	-0.7237723692252234	-1.180291698749582e-07	1.374551242604246e-07	2.147714215044485e-07	8.661660474919332e-08	-4.785013608194963e-07	1.216922650387756e-08	-3.397367277949174e-08
0.06	-0.164121037105903	0.05415407854646385	0.8960662941377138	0.3979609047308296	-0.2623278419238649	-0.2455510365039183	-0.02214033426756477	0.04790287687889928	0.04790287687890202	-0.1742617533074427	0.1535283251916399	-0.04015363982339543	-0.01226467365114877	-0.2166979663669544	-0.1082458201514611	-0.06069809014756803	0.6619360711158818	-0.06155126324371939	0.1636998717655274	-0.3030673971342633	0.5093864474326536	0.5093864474325775	0.006997874344057214	0.0117949722463072	0.0731366589361752	-0.04642546479740488	0.1156253157377819	-0.02772169501798163	-0.04365551828727364	-0.2788434901024791	0.2917616966908278	-0.07238805592741776	-0.06460136636498091	50.95283592551024	16.39857136814512	3.971529221052557	-7.182534477298683	-587.2977792034882	-37.99501282738184	-38.86356069652332	-3.327689069665231	-1.591415106365486	-1.001240804185017	10.17464644626652	-0.9129529492875441	2.497314048904624	-4.28447607238003	7.951568771846802	7.951568771847422	0.09821330402037137	0.2387156793128487	1.26311112635886	-0.6579167059013226	-1.303793556830498e-07	1.421992684307015e-07	2.241523669473125e-07	1.017323703488769e-07	-5.557821720617487e-07	1.70511475987442e-08	-3.550287774316457e-08
